<mxfile host="Electron" agent="Mozilla/5.0 (Windows NT 10.0; Win64; x64) AppleWebKit/537.36 (KHTML, like Gecko) draw.io/24.7.8 Chrome/128.0.6613.36 Electron/32.0.1 Safari/537.36" version="24.7.8">
  <diagram name="Seite-1" id="bhteHaFV_CFS_0Fu9Rrk">
    <mxGraphModel dx="712" dy="311" grid="1" gridSize="10" guides="1" tooltips="1" connect="1" arrows="1" fold="1" page="1" pageScale="1" pageWidth="827" pageHeight="1169" math="0" shadow="0">
      <root>
        <mxCell id="0" />
        <mxCell id="1" parent="0" />
        <mxCell id="1F2mQ7YrCzXsIhA7OkNF-12" style="edgeStyle=orthogonalEdgeStyle;rounded=0;orthogonalLoop=1;jettySize=auto;html=1;entryX=0;entryY=0.5;entryDx=0;entryDy=0;" parent="1" source="1F2mQ7YrCzXsIhA7OkNF-1" target="1F2mQ7YrCzXsIhA7OkNF-27" edge="1">
          <mxGeometry relative="1" as="geometry">
            <mxPoint x="160" y="380" as="targetPoint" />
          </mxGeometry>
        </mxCell>
        <mxCell id="1F2mQ7YrCzXsIhA7OkNF-1" value="" style="ellipse;whiteSpace=wrap;html=1;aspect=fixed;fillColor=#000000;" parent="1" vertex="1">
          <mxGeometry x="40" y="360" width="40" height="40" as="geometry" />
        </mxCell>
        <mxCell id="1F2mQ7YrCzXsIhA7OkNF-24" style="edgeStyle=orthogonalEdgeStyle;rounded=0;orthogonalLoop=1;jettySize=auto;html=1;entryX=0.5;entryY=1;entryDx=0;entryDy=0;exitX=0.5;exitY=0;exitDx=0;exitDy=0;" parent="1" source="1F2mQ7YrCzXsIhA7OkNF-27" target="1F2mQ7YrCzXsIhA7OkNF-25" edge="1">
          <mxGeometry relative="1" as="geometry">
            <mxPoint x="220" y="350" as="sourcePoint" />
            <mxPoint x="219.38" y="280" as="targetPoint" />
          </mxGeometry>
        </mxCell>
        <mxCell id="1F2mQ7YrCzXsIhA7OkNF-16" style="edgeStyle=orthogonalEdgeStyle;rounded=0;orthogonalLoop=1;jettySize=auto;html=1;entryX=0.5;entryY=0;entryDx=0;entryDy=0;" parent="1" source="1F2mQ7YrCzXsIhA7OkNF-7" target="1F2mQ7YrCzXsIhA7OkNF-10" edge="1">
          <mxGeometry relative="1" as="geometry" />
        </mxCell>
        <mxCell id="1F2mQ7YrCzXsIhA7OkNF-7" value="Game" style="rounded=1;whiteSpace=wrap;html=1;" parent="1" vertex="1">
          <mxGeometry x="380" y="350" width="120" height="60" as="geometry" />
        </mxCell>
        <mxCell id="1F2mQ7YrCzXsIhA7OkNF-17" style="edgeStyle=orthogonalEdgeStyle;rounded=0;orthogonalLoop=1;jettySize=auto;html=1;exitX=0;exitY=0.5;exitDx=0;exitDy=0;entryX=0.5;entryY=1;entryDx=0;entryDy=0;" parent="1" source="1F2mQ7YrCzXsIhA7OkNF-10" target="1F2mQ7YrCzXsIhA7OkNF-27" edge="1">
          <mxGeometry relative="1" as="geometry">
            <mxPoint x="220" y="410" as="targetPoint" />
          </mxGeometry>
        </mxCell>
        <mxCell id="1F2mQ7YrCzXsIhA7OkNF-10" value="Ceremony" style="rounded=1;whiteSpace=wrap;html=1;" parent="1" vertex="1">
          <mxGeometry x="380" y="480" width="120" height="60" as="geometry" />
        </mxCell>
        <mxCell id="1F2mQ7YrCzXsIhA7OkNF-25" value="" style="ellipse;whiteSpace=wrap;html=1;aspect=fixed;" parent="1" vertex="1">
          <mxGeometry x="200" y="240" width="40" height="40" as="geometry" />
        </mxCell>
        <mxCell id="1F2mQ7YrCzXsIhA7OkNF-26" value="" style="ellipse;whiteSpace=wrap;html=1;aspect=fixed;fillColor=#000000;" parent="1" vertex="1">
          <mxGeometry x="206.40999999999997" y="246.41" width="27.18" height="27.18" as="geometry" />
        </mxCell>
        <mxCell id="1F2mQ7YrCzXsIhA7OkNF-28" style="edgeStyle=orthogonalEdgeStyle;rounded=0;orthogonalLoop=1;jettySize=auto;html=1;entryX=0;entryY=0.5;entryDx=0;entryDy=0;exitX=1;exitY=0.5;exitDx=0;exitDy=0;" parent="1" source="1F2mQ7YrCzXsIhA7OkNF-27" target="1F2mQ7YrCzXsIhA7OkNF-7" edge="1">
          <mxGeometry relative="1" as="geometry">
            <mxPoint x="230" y="610" as="sourcePoint" />
            <mxPoint x="330" y="610" as="targetPoint" />
          </mxGeometry>
        </mxCell>
        <mxCell id="1F2mQ7YrCzXsIhA7OkNF-27" value="Dialog" style="rounded=1;whiteSpace=wrap;html=1;" parent="1" vertex="1">
          <mxGeometry x="160" y="350" width="120" height="60" as="geometry" />
        </mxCell>
        <mxCell id="mv_P2EFcE8zkpO9AOmMs-1" value="ClientState" style="shape=umlFrame;whiteSpace=wrap;html=1;pointerEvents=0;recursiveResize=0;container=1;collapsible=0;width=160;" parent="1" vertex="1">
          <mxGeometry y="200" width="520" height="360" as="geometry" />
        </mxCell>
        <mxCell id="_Tzsocxd1Zsv7dE0mka9-1" value="[Host startet&amp;nbsp;&lt;div&gt;das Spiel]&lt;/div&gt;" style="text;html=1;align=center;verticalAlign=middle;resizable=0;points=[];autosize=1;strokeColor=none;fillColor=none;" parent="mv_P2EFcE8zkpO9AOmMs-1" vertex="1">
          <mxGeometry x="280" y="140" width="90" height="40" as="geometry" />
        </mxCell>
        <mxCell id="_Tzsocxd1Zsv7dE0mka9-3" value="Spieler beendet Ceremony" style="text;html=1;align=center;verticalAlign=middle;resizable=0;points=[];autosize=1;strokeColor=none;fillColor=none;" parent="mv_P2EFcE8zkpO9AOmMs-1" vertex="1">
          <mxGeometry x="210" y="310" width="170" height="30" as="geometry" />
        </mxCell>
        <mxCell id="_Tzsocxd1Zsv7dE0mka9-2" value="[Spiel hat&amp;nbsp;&lt;div&gt;geendet]&lt;/div&gt;" style="text;html=1;align=center;verticalAlign=middle;resizable=0;points=[];autosize=1;strokeColor=none;fillColor=none;" parent="1" vertex="1">
          <mxGeometry x="430" y="423" width="80" height="40" as="geometry" />
        </mxCell>
      </root>
    </mxGraphModel>
  </diagram>
</mxfile>
